<svg id="레이어_1" data-name="레이어 1" xmlns="http://www.w3.org/2000/svg" viewBox="0 0 18.88 18.91"><defs><style>.cls-1{fill:#fff;}</style></defs><title>boosteel-e</title><path class="cls-1" d="M331.78,429.93h6.6c2.56,0,3.85-1.33,3.85-4v-2.81c0-3.3-1.86-4.94-5.57-4.94h-7.75c-3.71,0-5.57,1.64-5.57,4.94v9q0,4.94,5.57,4.94h12.61v-4.84h-11a.82.82,0,0,1-.93-.93v-1.38Zm-2.55-5.16V424a1.18,1.18,0,0,1,1.3-1.3H335a1.18,1.18,0,0,1,1.3,1.3v.81a1.19,1.19,0,0,1-1.3,1.31h-4.51A1.19,1.19,0,0,1,329.23,424.77Z" transform="translate(-323.34 -418.18)"/></svg>