<svg id="레이어_1" data-name="레이어 1" xmlns="http://www.w3.org/2000/svg" viewBox="0 0 526.47 87.13"><defs><style>.cls-1{fill:#ddad50;}.cls-2{fill:#fff;}</style></defs><title>logo</title><path class="cls-1" d="M242.63,424.31l-27.49-27.49a10.3,10.3,0,0,0-14.5,0l-27.49,27.49a10.3,10.3,0,0,0,0,14.5l27.49,27.48a10.28,10.28,0,0,0,14.5,0l27.49-27.48A10.3,10.3,0,0,0,242.63,424.31Zm-18.44,9.56-24.74,14.28c-2.2,1.27-4,.23-4-2.31V417.27c0-2.54,1.8-3.58,4-2.31l24.74,14.29C226.39,430.52,226.39,432.6,224.19,433.87Z" transform="translate(-39.53 -382.16)"/><path class="cls-2" d="M317.64,418.71V402.23h9.69V382.16h19.88v20.07h10.38v16.48H347.21v21.82q0,3.87,3.88,3.87h6.5v16.49H346.53q-19.2,0-19.2-17.26V418.71Z" transform="translate(-39.53 -382.16)"/><path class="cls-2" d="M39.53,382.16H58.92V404a19.86,19.86,0,0,1,8.73-1.74H78.9q19.2,0,19.2,17.26v24.14q0,17.26-19.2,17.26H39.53Zm19.39,39V442c0,2.59,1.3,3.88,3.88,3.88h12q3.87,0,3.87-3.88V421.14q0-3.88-3.87-3.88h-12C60.22,417.26,58.92,418.55,58.92,421.14Z" transform="translate(-39.53 -382.16)"/><path class="cls-2" d="M164.22,419v25.11q0,17.26-19.2,17.26H124.86q-19.2,0-19.2-17.26V419q0-17.25,19.2-17.26H145Q164.22,401.74,164.22,419Zm-19.39,23V421.14q0-3.88-3.88-3.88h-12q-3.89,0-3.88,3.88V442q0,3.88,3.88,3.88h12Q144.83,445.86,144.83,442Z" transform="translate(-39.53 -382.16)"/><path class="cls-2" d="M515.82,382.16v78.73H495.94V382.16Z" transform="translate(-39.53 -382.16)"/><path class="cls-2" d="M540.91,418.65v42.24H521V418.65Z" transform="translate(-39.53 -382.16)"/><path class="cls-2" d="M566,437.89v23H546.13v-23Z" transform="translate(-39.53 -382.16)"/><path class="cls-2" d="M275.27,417.35h32.26V401.84H270.22q-17.25,0-17.25,15.32V423q0,15.31,17.25,15.32h19a2.57,2.57,0,0,1,2.91,2.91V443a2.57,2.57,0,0,1-2.9,2.91H253v15.51h41.3q17.26,0,17.26-15.32v-6q0-15.32-17.26-15.32h-19a2.57,2.57,0,0,1-2.91-2.91v-1.55A2.57,2.57,0,0,1,275.27,417.35Z" transform="translate(-39.53 -382.16)"/><path class="cls-2" d="M390.11,438.68h20.46q11.93,0,11.93-12.41v-8.72q0-15.33-17.26-15.32H381.19q-17.25,0-17.25,15.32v28q0,15.31,17.25,15.32h39.12v-15H386.23a2.57,2.57,0,0,1-2.9-2.91v-4.27Zm-7.92-16v-2.52a3.69,3.69,0,0,1,4.05-4.05h14a3.68,3.68,0,0,1,4,4.05v2.52a3.68,3.68,0,0,1-4,4h-14A3.68,3.68,0,0,1,382.19,422.69Z" transform="translate(-39.53 -382.16)"/><path class="cls-2" d="M456,438.68h20.46q11.93,0,11.93-12.41v-8.72q0-15.33-17.26-15.32H447.08q-17.25,0-17.26,15.32v28q0,15.31,17.26,15.32H486.2v-15H452.11c-1.93,0-2.89-1-2.89-2.91v-4.27Zm-7.92-16v-2.52a3.69,3.69,0,0,1,4-4.05h14a3.68,3.68,0,0,1,4,4.05v2.52a3.68,3.68,0,0,1-4,4h-14A3.68,3.68,0,0,1,448.08,422.69Z" transform="translate(-39.53 -382.16)"/></svg>